<?xml version="1.0" encoding="UTF-8"?>
<!DOCTYPE svg PUBLIC "-//W3C//DTD SVG 1.1//EN" "http://www.w3.org/Graphics/SVG/1.1/DTD/svg11.dtd">
<svg version="1.2" width="34.13mm" height="34.13mm" viewBox="0 0 3413 3413" preserveAspectRatio="xMidYMid" fill-rule="evenodd" stroke-width="28.222" stroke-linejoin="round" xmlns="http://www.w3.org/2000/svg" xmlns:ooo="http://xml.openoffice.org/svg/export" xmlns:xlink="http://www.w3.org/1999/xlink" xmlns:presentation="http://sun.com/xmlns/staroffice/presentation" xmlns:smil="http://www.w3.org/2001/SMIL20/" xmlns:anim="urn:oasis:names:tc:opendocument:xmlns:animation:1.0" xmlns:svg="urn:oasis:names:tc:opendocument:xmlns:svg-compatible:1.0" xml:space="preserve">
 <defs class="ClipPathGroup">
  <clipPath id="presentation_clip_path" clipPathUnits="userSpaceOnUse">
   <rect x="0" y="0" width="3413" height="3413"/>
  </clipPath>
  <clipPath id="presentation_clip_path_shrink" clipPathUnits="userSpaceOnUse">
   <rect x="3" y="3" width="3407" height="3407"/>
  </clipPath>
 </defs>
 <defs class="TextShapeIndex">
  <g ooo:slide="id1" ooo:id-list="id3 id4"/>
 </defs>
 <defs class="EmbeddedBulletChars">
  <g id="bullet-char-template-57356" transform="scale(0.00048828125,-0.00048828125)">
   <path d="M 580,1141 L 1163,571 580,0 -4,571 580,1141 Z"/>
  </g>
  <g id="bullet-char-template-57354" transform="scale(0.00048828125,-0.00048828125)">
   <path d="M 8,1128 L 1137,1128 1137,0 8,0 8,1128 Z"/>
  </g>
  <g id="bullet-char-template-10146" transform="scale(0.00048828125,-0.00048828125)">
   <path d="M 174,0 L 602,739 174,1481 1456,739 174,0 Z M 1358,739 L 309,1346 659,739 1358,739 Z"/>
  </g>
  <g id="bullet-char-template-10132" transform="scale(0.00048828125,-0.00048828125)">
   <path d="M 2015,739 L 1276,0 717,0 1260,543 174,543 174,936 1260,936 717,1481 1274,1481 2015,739 Z"/>
  </g>
  <g id="bullet-char-template-10007" transform="scale(0.00048828125,-0.00048828125)">
   <path d="M 0,-2 C -7,14 -16,27 -25,37 L 356,567 C 262,823 215,952 215,954 215,979 228,992 255,992 264,992 276,990 289,987 310,991 331,999 354,1012 L 381,999 492,748 772,1049 836,1024 860,1049 C 881,1039 901,1025 922,1006 886,937 835,863 770,784 769,783 710,716 594,584 L 774,223 C 774,196 753,168 711,139 L 727,119 C 717,90 699,76 672,76 641,76 570,178 457,381 L 164,-76 C 142,-110 111,-127 72,-127 30,-127 9,-110 8,-76 1,-67 -2,-52 -2,-32 -2,-23 -1,-13 0,-2 Z"/>
  </g>
  <g id="bullet-char-template-10004" transform="scale(0.00048828125,-0.00048828125)">
   <path d="M 285,-33 C 182,-33 111,30 74,156 52,228 41,333 41,471 41,549 55,616 82,672 116,743 169,778 240,778 293,778 328,747 346,684 L 369,508 C 377,444 397,411 428,410 L 1163,1116 C 1174,1127 1196,1133 1229,1133 1271,1133 1292,1118 1292,1087 L 1292,965 C 1292,929 1282,901 1262,881 L 442,47 C 390,-6 338,-33 285,-33 Z"/>
  </g>
  <g id="bullet-char-template-9679" transform="scale(0.00048828125,-0.00048828125)">
   <path d="M 813,0 C 632,0 489,54 383,161 276,268 223,411 223,592 223,773 276,916 383,1023 489,1130 632,1184 813,1184 992,1184 1136,1130 1245,1023 1353,916 1407,772 1407,592 1407,412 1353,268 1245,161 1136,54 992,0 813,0 Z"/>
  </g>
  <g id="bullet-char-template-8226" transform="scale(0.00048828125,-0.00048828125)">
   <path d="M 346,457 C 273,457 209,483 155,535 101,586 74,649 74,723 74,796 101,859 155,911 209,963 273,989 346,989 419,989 480,963 531,910 582,859 608,796 608,723 608,648 583,586 532,535 482,483 420,457 346,457 Z"/>
  </g>
  <g id="bullet-char-template-8211" transform="scale(0.00048828125,-0.00048828125)">
   <path d="M -4,459 L 1135,459 1135,606 -4,606 -4,459 Z"/>
  </g>
  <g id="bullet-char-template-61548" transform="scale(0.00048828125,-0.00048828125)">
   <path d="M 173,740 C 173,903 231,1043 346,1159 462,1274 601,1332 765,1332 928,1332 1067,1274 1183,1159 1299,1043 1357,903 1357,740 1357,577 1299,437 1183,322 1067,206 928,148 765,148 601,148 462,206 346,322 231,437 173,577 173,740 Z"/>
  </g>
 </defs>
 <g>
  <g id="id2" class="Master_Slide">
   <g id="bg-id2" class="Background"/>
   <g id="bo-id2" class="BackgroundObjects"/>
  </g>
 </g>
 <g class="SlideGroup">
  <g>
   <g id="container-id1">
    <g id="id1" class="Slide" clip-path="url(#presentation_clip_path)">
     <g class="Page">
      <g class="Graphic">
       <g id="id3">
        <rect class="BoundingBox" stroke="none" fill="none" x="0" y="0" width="3413" height="3413"/>
        <path fill="rgb(54,61,82)" stroke="none" d="M 1706,3346 L 2976,3346 C 3180,3346 3346,3180 3346,2976 L 3346,436 C 3346,232 3180,66 2976,66 L 436,66 C 232,66 66,232 66,436 L 66,2976 C 66,3180 232,3346 436,3346 L 1706,3346 Z"/>
        <path fill="none" stroke="rgb(33,37,50)" stroke-width="106" stroke-linejoin="miter" d="M 1706,3346 L 2976,3346 C 3180,3346 3346,3180 3346,2976 L 3346,436 C 3346,232 3180,66 2976,66 L 436,66 C 232,66 66,232 66,436 L 66,2976 C 66,3180 232,3346 436,3346 L 1706,3346 Z"/>
        <path fill="rgb(255,255,255)" stroke="none" d="M 620,2137 L 620,2225 C 1344,2856 2069,2856 2794,2225 L 2794,2137 620,2137 Z"/>
        <path fill="rgb(71,140,191)" stroke="none" d="M 620,2137 L 1026,2174 C 1047,2176 1060,2189 1066,2212 L 1076,2391 1429,2417 1450,2255 C 1454,2235 1467,2222 1491,2214 L 1923,2214 C 1946,2222 1960,2235 1963,2255 L 1985,2417 2337,2391 2348,2212 C 2353,2189 2367,2176 2388,2174 L 2794,2137 2794,1480 C 2848,1410 2897,1338 2944,1263 2881,1158 2808,1062 2722,975 2645,1011 2572,1052 2503,1100 2432,1035 2353,978 2268,930 2280,839 2287,748 2289,657 2184,607 2075,570 1961,545 1914,621 1873,701 1838,783 1751,770 1663,770 1576,783 1540,701 1499,621 1453,545 1339,570 1230,607 1125,657 1126,748 1133,839 1146,930 1060,978 982,1035 911,1100 841,1052 768,1011 692,975 606,1062 532,1158 470,1263 516,1338 566,1410 620,1480 L 620,2137 Z M 620,2225 L 620,2329 C 620,3067 2791,3067 2791,2329 L 2791,2225 2434,2257 2420,2442 C 2417,2459 2404,2471 2383,2476 L 1950,2506 C 1929,2506 1914,2496 1907,2476 L 1881,2303 1533,2303 1507,2476 C 1499,2496 1485,2506 1464,2506 L 1031,2476 C 1010,2471 997,2459 994,2442 L 980,2257 620,2225 Z"/>
        <path fill="rgb(255,255,255)" stroke="none" d="M 1629,1942 C 1637,2033 1776,2033 1784,1942 L 1784,1712 C 1776,1621 1637,1621 1629,1712 L 1629,1942 Z"/>
        <path fill="rgb(255,255,255)" stroke="none" d="M 2516,1744 C 2516,1787 2505,1828 2484,1865 2463,1901 2433,1931 2396,1953 2360,1974 2318,1985 2276,1985 2234,1985 2192,1974 2156,1953 2119,1931 2089,1901 2068,1865 2047,1828 2035,1787 2035,1744 2035,1702 2047,1661 2068,1624 2089,1588 2119,1557 2156,1536 2192,1515 2234,1504 2276,1504 2318,1504 2360,1515 2396,1536 2433,1557 2463,1588 2484,1624 2505,1661 2516,1702 2516,1744 L 2516,1744 Z"/>
        <path fill="rgb(255,255,255)" stroke="none" d="M 1378,1744 C 1378,1787 1367,1828 1346,1865 1325,1901 1295,1931 1258,1953 1222,1974 1180,1985 1138,1985 1096,1985 1054,1974 1018,1953 981,1931 951,1901 930,1865 909,1828 897,1787 897,1744 897,1702 909,1661 930,1624 951,1588 981,1557 1018,1536 1054,1515 1096,1504 1138,1504 1180,1504 1222,1515 1258,1536 1295,1557 1325,1588 1346,1624 1367,1661 1378,1702 1378,1744 L 1378,1744 Z"/>
        <path fill="rgb(65,64,66)" stroke="none" d="M 1320,1760 C 1320,1788 1312,1816 1298,1840 1284,1865 1264,1885 1239,1899 1215,1913 1187,1921 1159,1921 1131,1921 1103,1913 1079,1899 1055,1885 1035,1865 1020,1840 1006,1816 999,1788 999,1760 999,1732 1006,1705 1020,1680 1035,1656 1055,1636 1079,1622 1103,1607 1131,1600 1159,1600 1187,1600 1215,1607 1239,1622 1264,1636 1284,1656 1298,1680 1312,1705 1320,1732 1320,1760 L 1320,1760 Z"/>
        <path fill="rgb(65,64,66)" stroke="none" d="M 2415,1760 C 2415,1788 2407,1816 2393,1840 2379,1865 2359,1885 2335,1899 2310,1913 2283,1921 2255,1921 2226,1921 2199,1913 2174,1899 2150,1885 2130,1865 2116,1840 2102,1816 2094,1788 2094,1760 2094,1732 2102,1705 2116,1680 2130,1656 2150,1636 2174,1622 2199,1607 2226,1600 2255,1600 2283,1600 2310,1607 2335,1622 2359,1636 2379,1656 2393,1680 2407,1705 2415,1732 2415,1760 L 2415,1760 Z"/>
       </g>
      </g>
      <g class="com.sun.star.drawing.OpenFreeHandShape">
       <g id="id4">
        <rect class="BoundingBox" stroke="none" fill="none" x="283" y="437" width="2338" height="2737"/>
        <path fill="none" stroke="rgb(191,0,65)" stroke-width="212" stroke-linejoin="round" d="M 543,543 C 527,589 511,636 498,683 481,746 452,807 447,874 441,950 432,1031 409,1105 398,1139 385,1176 390,1211 394,1244 414,1278 438,1306 479,1353 527,1395 579,1431 659,1486 752,1527 838,1575 931,1626 1027,1678 1108,1748 1184,1814 1284,1872 1317,1978 1343,2061 1323,2151 1301,2229 1273,2331 1224,2431 1153,2512 1096,2577 1061,2658 1016,2731 987,2779 941,2817 916,2868 902,2896 867,2947 907,2976 1052,3082 1239,3075 1407,3054 1617,3028 1811,2932 1991,2827 2122,2751 2225,2633 2322,2517 2400,2424 2465,2314 2488,2193 2511,2067 2527,1932 2495,1807 2463,1682 2399,1568 2333,1461 2278,1370 2210,1286 2117,1231 1977,1149 1825,1084 1667,1051 1544,1025 1417,1024 1292,1029 1175,1033 1053,1062 941,1007 899,986 848,974 815,941 788,914 802,867 797,836 781,734 858,655 943,620 1027,586 1114,549 1207,546 1343,541 1480,551 1611,597 1732,639 1840,707 1950,773 2058,838 2166,917 2234,1029 2324,1178 2414,1334 2447,1508 2469,1625 2451,1757 2371,1854 2279,1966 2187,2081 2090,2189 2001,2288 1914,2413 1766,2431 1594,2452 1438,2374 1279,2333 1140,2297 1001,2257 872,2196 796,2160 678,2137 653,2043 625,1940 695,1835 732,1746 795,1593 857,1438 948,1299 1032,1171 1178,1092 1326,1065 1429,1046 1542,1045 1640,1090 1768,1149 2141,1273 2004,1314 1861,1357 2256,1495 2097,1400 1874,1267 1664,1099 1420,1007 1337,976 1258,933 1189,881 1120,828 1054,769 980,726 867,661 1054,712 1103,746 1218,826 1371,837 1510,865 L 1600,880 1620,880 1618,865"/>
       </g>
      </g>
     </g>
    </g>
   </g>
  </g>
 </g>
</svg>